<svg xmlns="http://www.w3.org/2000/svg" width="450" height="250" viewBox="0 0 450 250">
  <defs>
    <style>
      .a, .f {
        fill: #fff;
      }

      .b, .c, .d, .i {
        fill: none;
      }

      .b {
        stroke: #f8f8f8;
      }

      .c {
        stroke: #f0f0f0;
      }

      .d {
        stroke: #ddd;
      }

      .e {
        fill: #ddd;
      }

      .f {
        stroke: #aaa;
      }

      .f, .i {
        stroke-miterlimit: 19.2;
      }

      .g {
        fill: #404040;
      }

      .h {
        fill: #fafafa;
      }

      .h, .i {
        stroke: #404040;
      }
    </style>
  </defs>
  <g>
    <rect class="a" width="450" height="250"/>
    <g>
      <g>
        <line class="b" x1="5" x2="5" y2="250"/>
        <line class="b" x1="10" x2="10" y2="250"/>
        <line class="b" x1="15" x2="15" y2="250"/>
        <line class="b" x1="20" x2="20" y2="250"/>
        <line class="b" x1="30" x2="30" y2="250"/>
        <line class="b" x1="35" x2="35" y2="250"/>
        <line class="b" x1="40" x2="40" y2="250"/>
        <line class="b" x1="45" x2="45" y2="250"/>
        <line class="b" x1="55" x2="55" y2="250"/>
        <line class="b" x1="60" x2="60" y2="250"/>
        <line class="b" x1="65" x2="65" y2="250"/>
        <line class="b" x1="70" x2="70" y2="250"/>
        <line class="b" x1="80" x2="80" y2="250"/>
        <line class="b" x1="85" x2="85" y2="250"/>
        <line class="b" x1="90" x2="90" y2="250"/>
        <line class="b" x1="95" x2="95" y2="250"/>
        <line class="b" x1="105" x2="105" y2="250"/>
        <line class="b" x1="110" x2="110" y2="250"/>
        <line class="b" x1="115" x2="115" y2="250"/>
        <line class="b" x1="120" x2="120" y2="250"/>
        <line class="b" x1="130" x2="130" y2="250"/>
        <line class="b" x1="135" x2="135" y2="250"/>
        <line class="b" x1="140" x2="140" y2="250"/>
        <line class="b" x1="145" x2="145" y2="250"/>
        <line class="b" x1="155" x2="155" y2="250"/>
        <line class="b" x1="160" x2="160" y2="250"/>
        <line class="b" x1="165" x2="165" y2="250"/>
        <line class="b" x1="170" x2="170" y2="250"/>
        <line class="b" x1="180" x2="180" y2="250"/>
        <line class="b" x1="185" x2="185" y2="250"/>
        <line class="b" x1="190" x2="190" y2="250"/>
        <line class="b" x1="195" x2="195" y2="250"/>
        <line class="b" x1="205" x2="205" y2="250"/>
        <line class="b" x1="210" x2="210" y2="250"/>
        <line class="b" x1="215" x2="215" y2="250"/>
        <line class="b" x1="220" x2="220" y2="250"/>
        <line class="b" x1="230" x2="230" y2="250"/>
        <line class="b" x1="235" x2="235" y2="250"/>
        <line class="b" x1="240" x2="240" y2="250"/>
        <line class="b" x1="245" x2="245" y2="250"/>
        <line class="b" x1="255" x2="255" y2="250"/>
        <line class="b" x1="260" x2="260" y2="250"/>
        <line class="b" x1="265" x2="265" y2="250"/>
        <line class="b" x1="270" x2="270" y2="250"/>
        <line class="b" x1="280" x2="280" y2="250"/>
        <line class="b" x1="285" x2="285" y2="250"/>
        <line class="b" x1="290" x2="290" y2="250"/>
        <line class="b" x1="295" x2="295" y2="250"/>
        <line class="b" x1="305" x2="305" y2="250"/>
        <line class="b" x1="310" x2="310" y2="250"/>
        <line class="b" x1="315" x2="315" y2="250"/>
        <line class="b" x1="320" x2="320" y2="250"/>
        <line class="b" x1="330" x2="330" y2="250"/>
        <line class="b" x1="335" x2="335" y2="250"/>
        <line class="b" x1="340" x2="340" y2="250"/>
        <line class="b" x1="345" x2="345" y2="250"/>
        <line class="b" x1="355" x2="355" y2="250"/>
        <line class="b" x1="360" x2="360" y2="250"/>
        <line class="b" x1="365" x2="365" y2="250"/>
        <line class="b" x1="370" x2="370" y2="250"/>
        <line class="b" x1="380" x2="380" y2="250"/>
        <line class="b" x1="385" x2="385" y2="250"/>
        <line class="b" x1="390" x2="390" y2="250"/>
        <line class="b" x1="395" x2="395" y2="250"/>
        <line class="b" x1="405" x2="405" y2="250"/>
        <line class="b" x1="410" x2="410" y2="250"/>
        <line class="b" x1="415" x2="415" y2="250"/>
        <line class="b" x1="420" x2="420" y2="250"/>
        <line class="b" x1="430" x2="430" y2="250"/>
        <line class="b" x1="435" x2="435" y2="250"/>
        <line class="b" x1="440" x2="440" y2="250"/>
        <line class="b" x1="445" x2="445" y2="250"/>
        <line class="b" y1="5" x2="450" y2="5"/>
        <line class="b" y1="10" x2="450" y2="10"/>
        <line class="b" y1="15" x2="450" y2="15"/>
        <line class="b" y1="20" x2="450" y2="20"/>
        <line class="b" y1="30" x2="450" y2="30"/>
        <line class="b" y1="35" x2="450" y2="35"/>
        <line class="b" y1="40" x2="450" y2="40"/>
        <line class="b" y1="45" x2="450" y2="45"/>
        <line class="b" y1="55" x2="450" y2="55"/>
        <line class="b" y1="60" x2="450" y2="60"/>
        <line class="b" y1="65" x2="450" y2="65"/>
        <line class="b" y1="70" x2="450" y2="70"/>
        <line class="b" y1="80" x2="450" y2="80"/>
        <line class="b" y1="85" x2="450" y2="85"/>
        <line class="b" y1="90" x2="450" y2="90"/>
        <line class="b" y1="95" x2="450" y2="95"/>
        <line class="b" y1="105" x2="450" y2="105"/>
        <line class="b" y1="110" x2="450" y2="110"/>
        <line class="b" y1="115" x2="450" y2="115"/>
        <line class="b" y1="120" x2="450" y2="120"/>
        <line class="b" y1="130" x2="450" y2="130"/>
        <line class="b" y1="135" x2="450" y2="135"/>
        <line class="b" y1="140" x2="450" y2="140"/>
        <line class="b" y1="145" x2="450" y2="145"/>
        <line class="b" y1="155" x2="450" y2="155"/>
        <line class="b" y1="160" x2="450" y2="160"/>
        <line class="b" y1="165" x2="450" y2="165"/>
        <line class="b" y1="170" x2="450" y2="170"/>
        <line class="b" y1="180" x2="450" y2="180"/>
        <line class="b" y1="185" x2="450" y2="185"/>
        <line class="b" y1="190" x2="450" y2="190"/>
        <line class="b" y1="195" x2="450" y2="195"/>
        <line class="b" y1="205" x2="450" y2="205"/>
        <line class="b" y1="210" x2="450" y2="210"/>
        <line class="b" y1="215" x2="450" y2="215"/>
        <line class="b" y1="220" x2="450" y2="220"/>
        <line class="b" y1="230" x2="450" y2="230"/>
        <line class="b" y1="235" x2="450" y2="235"/>
        <line class="b" y1="240" x2="450" y2="240"/>
        <line class="b" y1="245" x2="450" y2="245"/>
      </g>
      <g>
        <line class="c" x1="25" x2="25" y2="250"/>
        <line class="c" x1="75" x2="75" y2="250"/>
        <line class="c" x1="125" x2="125" y2="250"/>
        <line class="c" x1="175" x2="175" y2="250"/>
        <line class="c" x1="225" x2="225" y2="250"/>
        <line class="c" x1="275" x2="275" y2="250"/>
        <line class="c" x1="325" x2="325" y2="250"/>
        <line class="c" x1="375" x2="375" y2="250"/>
        <line class="c" x1="425" x2="425" y2="250"/>
        <line class="c" y1="25" x2="450" y2="25"/>
        <line class="c" y1="75" x2="450" y2="75"/>
        <line class="c" y1="125" x2="450" y2="125"/>
        <line class="c" y1="175" x2="450" y2="175"/>
        <line class="c" y1="225" x2="450" y2="225"/>
      </g>
      <g>
        <line class="d" y2="250"/>
        <line class="d" x1="50" x2="50" y2="250"/>
        <line class="d" x1="100" x2="100" y2="250"/>
        <line class="d" x1="150" x2="150" y2="250"/>
        <line class="d" x1="200" x2="200" y2="250"/>
        <line class="d" x1="250" x2="250" y2="250"/>
        <line class="d" x1="300" x2="300" y2="250"/>
        <line class="d" x1="350" x2="350" y2="250"/>
        <line class="d" x1="400" x2="400" y2="250"/>
        <line class="d" x1="450" x2="450" y2="250"/>
        <line class="d" x2="450"/>
        <line class="d" y1="50" x2="450" y2="50"/>
        <line class="d" y1="100" x2="450" y2="100"/>
        <line class="d" y1="150" x2="450" y2="150"/>
        <line class="d" y1="200" x2="450" y2="200"/>
        <line class="d" y1="250" x2="450" y2="250"/>
      </g>
    </g>
    <path class="e" d="M449,1V249H1V1H449m1-1H0V250H450V0Z"/>
  </g>
  <g>
    <g>
      <rect class="f" x="325" y="100" width="100.2142" height="50"/>
      <g>
        <path class="g" d="M340.84,130.8585c-.0937-.0933-.14-.1665-.14-.22a1.7,1.7,0,0,1,.0693-.34.9441.9441,0,0,1,.11-.3l.08-.06h.28a2.4253,2.4253,0,0,0,2.0391-1q.12-.12,3.6308-6.11t3.55-6.05a.4239.4239,0,0,1,.19-.21,1.9465,1.9465,0,0,1,.45-.03h.34a1.0456,1.0456,0,0,1,.1192.2l.56,6.46q.56,6.4607.6,6.52.1.22,1.3008.22c.1465,0,.25.0035.3106.01a.2666.2666,0,0,1,.1386.05.17.17,0,0,1,.0508.14,1.99,1.99,0,0,1-.06.28,1.2164,1.2164,0,0,1-.1094.37c-.0332.0469-.1231.07-.2695.07q-.36,0-1.1915-.02-.829-.02-1.33-.02-1.878,0-2.459.04h-.24a.4776.4776,0,0,1-.13-.17,1.8648,1.8648,0,0,1,.05-.37,1.6864,1.6864,0,0,1,.12-.32l.08-.06h.4q1.08-.04,1.28-.34l-.24-3h-4.76l-.6806,1.16a13.9687,13.9687,0,0,0-.7393,1.3.6683.6683,0,0,0-.08.3q0,.5.92.58c.2529,0,.38.0669.38.2a.9642.9642,0,0,1-.06.28,1.073,1.073,0,0,1-.12.36c-.0391.0537-.126.08-.26.08q-.34,0-1.08-.02t-1.12-.02q-1.4195,0-1.8193.04Zm9.4795-5.2q0-.22-.25-3.12t-.2695-2.92l-.54.86q-.3207.54-1.26,2.14l-1.8,3.04,2.06.02Q350.32,125.6783,350.32,125.6583Z"/>
        <path class="g" d="M361.12,123.9185a.4346.4346,0,0,1,.28-.4H374.14a.4378.4378,0,0,1,.3008.4.4534.4534,0,0,1-.28.38l-6.36.02h-6.3594A.396.396,0,0,1,361.12,123.9185Zm0,3.88a.3964.3964,0,0,1,.32-.4h12.72a.7794.7794,0,0,0,.09.07.8218.8218,0,0,1,.1.08.33.33,0,0,1,.06.1.3848.3848,0,0,1,.03.15.4373.4373,0,0,1-.3008.4H361.4007A.4341.4341,0,0,1,361.12,127.7984Z"/>
        <path class="g" d="M389.54,122.2383a.78.78,0,0,1,.4795.15.5074.5074,0,0,1,.2.43,24.9693,24.9693,0,0,1-.59,2.56q-.59,2.3-.63,2.64a4.2526,4.2526,0,0,0-.04.7,2.6,2.6,0,0,0,.1094.87,1.1379,1.1379,0,0,0,.41.51,1.4477,1.4477,0,0,0,.82.24q1.4195,0,2.26-2.44a11.1769,11.1769,0,0,0,.62-2.2,1.7237,1.7237,0,0,0,.0195-.3,1.9762,1.9762,0,0,0-.72-1.6.7963.7963,0,0,1-.32-.64,1.071,1.071,0,0,1,.3808-.81,1.21,1.21,0,0,1,.84-.35.2866.2866,0,0,1,.06.01.3234.3234,0,0,0,.08.01q.8394.22.84,1.48a12.394,12.394,0,0,1-.38,2.3,24.5325,24.5325,0,0,1-.76,2.46q-.98,2.48-2.6406,2.8a2.6564,2.6564,0,0,1-.38.02,3.7771,3.7771,0,0,1-1.58-.31,1.9,1.9,0,0,1-.96-.87,3.7935,3.7935,0,0,1-.89.88,2.0713,2.0713,0,0,1-1.17.3,3.3728,3.3728,0,0,1-2.15-.64,2.2745,2.2745,0,0,1-.81-1.9,4.0072,4.0072,0,0,1,.04-.72,17.8158,17.8158,0,0,1,.8994-2.9,5.7187,5.7187,0,0,0,.44-1.64,1.0564,1.0564,0,0,0-.05-.39c-.0332-.0727-.11-.11-.2305-.11h-.1a1.2442,1.2442,0,0,0-.88.42,4.194,4.194,0,0,0-.98,1.92.242.242,0,0,1-.02.07.2393.2393,0,0,1-.03.06l-.03.03a.0932.0932,0,0,1-.0693.02h-.53q-.12-.12-.12-.18a1.524,1.524,0,0,1,.06-.28,7.45,7.45,0,0,1,.38-.96,3.0687,3.0687,0,0,1,1.8994-1.8,1.7087,1.7087,0,0,1,.46-.04,1.7775,1.7775,0,0,1,1.3.47,1.5941,1.5941,0,0,1,.48,1.19,4.4353,4.4353,0,0,1-.36,1.34,14.8656,14.8656,0,0,0-.96,3.34v.26a1.8807,1.8807,0,0,0,.38,1.25,1.36,1.36,0,0,0,1.1006.45q.86,0,1.5195-1.22l.1006-.18v-.46q.04-.58.06-.68,0-.02.28-1.2t.6-2.43a11.6247,11.6247,0,0,1,.4-1.39A.8875.8875,0,0,1,389.54,122.2383Z"/>
        <path class="g" d="M404.16,131.0587a1.7948,1.7948,0,0,1-1.28-.47,1.5863,1.5863,0,0,1-.5-1.21,2.8093,2.8093,0,0,1,.2-.88,23.615,23.615,0,0,0,1.2-3.78,3.9814,3.9814,0,0,0,.0595-.76q0-1.18-.9795-1.18a2.41,2.41,0,0,0-.5205.04,3.81,3.81,0,0,0-2.36,1.92l-.14.26-.68,2.7q-.64,2.6-.74,2.84a.9035.9035,0,0,1-.88.54.8474.8474,0,0,1-.47-.15.4481.4481,0,0,1-.2305-.39q0-.24,2.9405-12a.3609.3609,0,0,0-.12-.32,3.0173,3.0173,0,0,0-.8-.1h-.4209a.5628.5628,0,0,1-.13-.16,2.0545,2.0545,0,0,1,.0507-.38c.0665-.2534.1524-.38.26-.38q.019,0,1.45-.11,1.43-.11,1.4492-.11.24,0,.24.18,0,.22-.72,3.02-.76,2.96-.76,3.02c0,.0269.0459-.0063.14-.1a3.7682,3.7682,0,0,1,2.6-1.08,2.6951,2.6951,0,0,1,1.7608.54,1.9234,1.9234,0,0,1,.6591,1.5795,3.9875,3.9875,0,0,1-.0595.76,25.1346,25.1346,0,0,1-1.1,3.54,4.7721,4.7721,0,0,0-.36,1.42.7251.7251,0,0,0,.1.38.3689.3689,0,0,0,.3008.1,1.3691,1.3691,0,0,0,1.05-.61,4.4784,4.4784,0,0,0,.7695-1.63.511.511,0,0,1,.12-.26.7494.7494,0,0,1,.32-.04c.2529.04.3867.0933.3994.16,0,.0131-.0264.1132-.08.3a4.5625,4.5625,0,0,1-1.0195,1.94A2.1035,2.1035,0,0,1,404.16,131.0587Z"/>
      </g>
    </g>
    <rect class="h" x="49.9995" y="50" width="200.0011" height="150"/>
    <g>
      <g>
        <line class="i" x1="275" y1="50" x2="275" y2="200"/>
        <rect class="g" x="271.75" y="49.5" width="6.5" height="1"/>
        <rect class="g" x="271.75" y="199.5" width="6.5" height="1"/>
      </g>
      <rect class="a" x="260" y="110" width="30" height="30"/>
      <path class="g" d="M277.2805,131.626a1.7946,1.7946,0,0,1-1.28-.47,1.5863,1.5863,0,0,1-.5-1.21,2.8093,2.8093,0,0,1,.2-.88,23.6254,23.6254,0,0,0,1.2-3.78,3.9818,3.9818,0,0,0,.06-.76q0-1.18-.9795-1.18a2.4032,2.4032,0,0,0-.5205.04,3.8094,3.8094,0,0,0-2.36,1.92l-.14.26-.68,2.7q-.64,2.6-.74,2.84a.9035.9035,0,0,1-.88.54.8471.8471,0,0,1-.47-.15.4481.4481,0,0,1-.2305-.39q0-.24,2.94-12a.3607.3607,0,0,0-.12-.32,3.0157,3.0157,0,0,0-.8-.1H271.56a.5613.5613,0,0,1-.13-.16,2.0549,2.0549,0,0,1,.0507-.38c.0664-.2535.1524-.38.26-.38q.019,0,1.45-.11t1.4492-.11q.24,0,.24.18,0,.2205-.72,3.02-.76,2.96-.76,3.02c0,.0268.0459-.0064.14-.1a3.768,3.768,0,0,1,2.6-1.08,2.6956,2.6956,0,0,1,1.7608.54,1.9238,1.9238,0,0,1,.6591,1.58,3.9875,3.9875,0,0,1-.06.76,25.1386,25.1386,0,0,1-1.1,3.54,4.7717,4.7717,0,0,0-.36,1.42.7252.7252,0,0,0,.1.38.3689.3689,0,0,0,.3008.1,1.3692,1.3692,0,0,0,1.05-.61,4.4784,4.4784,0,0,0,.7695-1.63.511.511,0,0,1,.12-.26.7494.7494,0,0,1,.32-.04c.2529.04.3867.0932.3994.16,0,.0132-.0264.1133-.08.3a4.5629,4.5629,0,0,1-1.0195,1.94A2.1035,2.1035,0,0,1,277.2805,131.626Z"/>
    </g>
    <g>
      <g>
        <line class="i" x1="50" y1="225" x2="250" y2="225"/>
        <rect class="g" x="49.5" y="221.75" width="1" height="6.5"/>
        <rect class="g" x="249.5" y="221.75" width="1" height="6.5"/>
      </g>
      <rect class="a" x="135" y="210" width="30" height="30"/>
      <path class="g" d="M151.9807,222.38a.7793.7793,0,0,1,.4795.15.5074.5074,0,0,1,.2.43,24.9442,24.9442,0,0,1-.59,2.56q-.59,2.3-.63,2.64a4.2667,4.2667,0,0,0-.04.7,2.6,2.6,0,0,0,.1093.87,1.1379,1.1379,0,0,0,.41.51,1.4487,1.4487,0,0,0,.82.24q1.4195,0,2.26-2.44a11.1761,11.1761,0,0,0,.62-2.2,1.7237,1.7237,0,0,0,.02-.3,1.9759,1.9759,0,0,0-.72-1.6.7963.7963,0,0,1-.32-.64,1.071,1.071,0,0,1,.3808-.81,1.2105,1.2105,0,0,1,.84-.35.2935.2935,0,0,1,.06.01.3182.3182,0,0,0,.08.01q.8394.22.84,1.48a12.3994,12.3994,0,0,1-.38,2.3,24.495,24.495,0,0,1-.76,2.46q-.98,2.48-2.6406,2.8a2.6379,2.6379,0,0,1-.38.02,3.779,3.779,0,0,1-1.58-.31,1.9,1.9,0,0,1-.96-.87,3.7935,3.7935,0,0,1-.89.88,2.0713,2.0713,0,0,1-1.17.3,3.3732,3.3732,0,0,1-2.15-.64,2.2744,2.2744,0,0,1-.81-1.9,4.01,4.01,0,0,1,.04-.72,17.8368,17.8368,0,0,1,.8994-2.9,5.7187,5.7187,0,0,0,.44-1.64,1.056,1.056,0,0,0-.05-.39c-.0332-.0727-.11-.11-.23-.11h-.1a1.2439,1.2439,0,0,0-.88.42,4.1941,4.1941,0,0,0-.9805,1.92.2408.2408,0,0,1-.0195.07.2438.2438,0,0,1-.03.06l-.03.03a.0937.0937,0,0,1-.0693.02h-.53q-.12-.12-.12-.18a1.524,1.524,0,0,1,.0605-.28,7.4651,7.4651,0,0,1,.38-.96,3.0687,3.0687,0,0,1,1.8994-1.8,1.7087,1.7087,0,0,1,.46-.04,1.7776,1.7776,0,0,1,1.3.47A1.5946,1.5946,0,0,1,148,223.84a4.4333,4.4333,0,0,1-.36,1.34,14.8623,14.8623,0,0,0-.96,3.34v.26a1.8807,1.8807,0,0,0,.38,1.25,1.36,1.36,0,0,0,1.1006.45q.86,0,1.52-1.22l.1-.18v-.46q.04-.58.06-.68,0-.02.28-1.2t.6-2.43a11.6684,11.6684,0,0,1,.4-1.39A.8876.8876,0,0,1,151.9807,222.38Z"/>
    </g>
    <path class="g" d="M143.84,131.4258c-.0937-.0932-.14-.1665-.14-.22a1.7,1.7,0,0,1,.0693-.34.9714.9714,0,0,1,.11-.3l.08-.06h.28a2.4269,2.4269,0,0,0,2.04-1q.12-.12,3.63-6.11t3.55-6.05a.42.42,0,0,1,.1905-.21,1.941,1.941,0,0,1,.4492-.03h.3408a1.1022,1.1022,0,0,1,.1191.2l.5606,6.46q.56,6.4607.6,6.52.1.2205,1.3.22c.1475,0,.25.0034.3106.01a.2669.2669,0,0,1,.14.05.17.17,0,0,1,.05.14,2.0694,2.0694,0,0,1-.06.28,1.2361,1.2361,0,0,1-.11.37c-.0332.0469-.1231.07-.2695.07q-.36,0-1.19-.02t-1.33-.02q-1.8793,0-2.46.04h-.2393a.4648.4648,0,0,1-.13-.17,1.7224,1.7224,0,0,1,.05-.37,1.553,1.553,0,0,1,.12-.32l.08-.06h.3995q1.08-.04,1.28-.34l-.24-3h-4.76l-.68,1.16a13.8705,13.8705,0,0,0-.74,1.3.6689.6689,0,0,0-.08.3q0,.5.92.58c.2529,0,.38.0669.38.2a.9559.9559,0,0,1-.0595.28,1.0709,1.0709,0,0,1-.12.36c-.04.0537-.1269.08-.2607.08q-.34,0-1.0791-.02-.7412-.02-1.12-.02-1.421,0-1.82.04Zm9.4805-5.2q0-.22-.25-3.12t-.2705-2.92l-.54.86q-.3193.54-1.26,2.14l-1.8,3.04,2.0595.02Q153.32,126.2457,153.3206,126.2256Z"/>
  </g>
</svg>
