<!DOCTYPE svg PUBLIC "-//W3C//DTD SVG 1.1//EN" "http://www.w3.org/Graphics/SVG/1.1/DTD/svg11.dtd">
<!-- Uploaded to: SVG Repo, www.svgrepo.com, Transformed by: SVG Repo Mixer Tools -->
<svg height="800px" width="800px" version="1.1" id="Layer_1" xmlns="http://www.w3.org/2000/svg" xmlns:xlink="http://www.w3.org/1999/xlink" viewBox="0 0 512 512" xml:space="preserve" fill="#000000">
<g id="SVGRepo_bgCarrier" stroke-width="0"/>
<g id="SVGRepo_tracerCarrier" stroke-linecap="round" stroke-linejoin="round"/>
<g id="SVGRepo_iconCarrier"> <path style="fill:#F37B2A;" d="M497.524,131.453L404.001,37.82c-19.521-19.19-50.951-19.19-70.251,0.11L111.523,260.157 l-11.689,11.69c-2.317,2.316-3.86,5.294-4.522,8.492c-1.079,4.853,0.352,10.717,4.522,14.889l140.394,140.394 c4.162,4.161,10.023,5.604,14.889,4.522c3.198-0.662,6.177-2.206,8.492-4.522l11.691-11.69l46.879-46.879 c6.686-6.686,7.569-17.218,2.087-24.92c-20.138-28.292-48.966-68.596-48.966-68.596l93.523-93.523c0,0,47.169,33.29,70.199,49.857 c6.821,4.907,16.193,4.142,22.136-1.799l36.368-36.368C516.824,182.405,516.824,150.973,497.524,131.453z"/> <path style="fill:#E56722;" d="M170.031,365.425l70.197,70.198c2.081,2.081,4.587,3.482,7.18,4.227 c2.594,0.746,5.276,0.835,7.709,0.294c1.599-0.331,3.143-0.882,4.577-1.64c1.434-0.759,2.757-1.724,3.915-2.881l11.691-11.69 l29.226-29.226l29.226-29.226c3.252-3.198,4.879-7.417,4.879-11.648c0-4.233-1.627-8.479-4.879-11.732l-29.226-29.281L275.3,283.539 l46.761-46.761l46.761-46.761l29.281,29.226l29.281,29.226c3.252,3.253,7.472,4.88,11.688,4.88c4.22,0,8.438-1.627,11.691-4.88 l23.381-23.381l23.381-23.381c9.65-9.65,14.475-22.333,14.475-35.043s-4.825-25.449-14.475-35.209l-46.761-46.816L170.002,365.397 L170.031,365.425z"/> <path style="fill:#DAE1E6;" d="M263.551,318.599l58.494,58.592l140.431-140.424l-58.593-58.498 c-12.867-12.846-33.914-12.838-46.771,0.019l-93.54,93.54C250.657,284.743,250.649,305.676,263.551,318.599z"/> <path style="fill:#FF9F19;" d="M143.066,462.532l-21.175,21.175c-3.087,3.088-7.279,4.853-11.689,4.853H16.569 c-6.729,0-12.684-4.081-15.331-10.257c-2.537-6.176-1.102-13.234,3.641-17.977l68.045-67.936L143.066,462.532z"/> <path style="fill:#F28618;" d="M110.2,488.559c4.41,0,8.602-1.765,11.689-4.853l21.175-21.175l-35.1-35.1l-61.126,61.126H110.2 V488.559z"/> <path style="fill:#736056;" d="M111.523,260.157l-11.689,11.69c-2.317,2.316-3.86,5.294-4.522,8.492L72.924,392.39l70.143,70.142 l112.05-22.388c3.198-0.662,6.177-2.206,8.492-4.522l11.691-11.69L111.523,260.157z"/> <path style="fill:#665247;" d="M143.066,462.532l112.05-22.388c3.198-0.662,6.177-2.206,8.492-4.522l11.691-11.69l-81.915-81.916 l-85.418,85.417L143.066,462.532z"/> </g>
</svg>